<svg xmlns="http://www.w3.org/2000/svg" xmlns:xlink="http://www.w3.org/1999/xlink" version="1.1" id="Layer_1" x="0px" y="0px" viewBox="0 0 1000 1000" xml:space="preserve" enable-background="new 0 0 1000 1000" width="70" height="70" fill="#FFFFFF">
<path d="M756.8 138.6c47 33.4 86.5 74.8 117.4 123.2 32 50.1 53.2 105.4 63.3 164.5 10 59.1 8.2 118.4-5.5 176.2 -13.2 55.8-36.8 108-70.2 155 -33.4 47-74.8 86.5-123.2 117.4 -50.1 32-105.4 53.2-164.5 63.3 -59.1 10-118.4 8.2-176.2-5.5 -55.8-13.2-108-36.8-155-70.2 -47-33.4-86.5-74.8-117.4-123.2 -32-50.1-53.2-105.4-63.3-164.5 -10-59.1-8.2-118.4 5.5-176.2 13.2-55.8 36.8-108 70.2-155s74.8-86.5 123.2-117.4c50.1-32 105.4-53.2 164.5-63.3 59.1-10 118.4-8.2 176.2 5.5C657.6 81.5 709.8 105.2 756.8 138.6M786.7 96.5C683.3 23.1 551.9-10.9 417 12 147.2 57.7-34.4 313.5 11.3 583.3 34.2 718.2 109.6 831.1 213 904.5s234.8 107.4 369.7 84.5c269.8-45.7 451.4-301.6 405.7-571.4C965.5 282.8 890.1 169.9 786.7 96.5L786.7 96.5zM686.2 408.1L523.4 292.5c-32.7-23.2-78.1-15.5-101.3 17.2l-234 329.6c-23.2 32.7-15.5 78.1 17.2 101.3l162.8 115.6c32.7 23.2 78.1 15.5 101.3-17.2l234-329.6C726.6 476.7 719 431.3 686.2 408.1zM427.3 809.1c-6.7 9.5-19.9 11.7-29.3 5L235.2 698.5c-9.5-6.7-11.7-19.9-5-29.3l234-329.6c6.7-9.5 19.9-11.7 29.3-5l162.8 115.6c9.5 6.7 11.7 19.9 5 29.3L427.3 809.1z"/>
<circle cx="345.4" cy="718.1" r="32.5"/>
<path d="M909.2 451.9L909.2 451.9c-33.9-229-268.7-396.9-496.2-355.6 -6.8 0.4-13.6 3.6-19 10.9 -15.4 22.4 8 45.7 28.3 39.9 199-35.4 404 110.5 435.5 310.3 0.1 21.7 30.6 37.2 47 14.8C909.7 465.3 910.7 458.2 909.2 451.9zM816.8 459.4c-7.8-43.4-23.7-84.1-47.3-121.1 -23.4-36.7-53.3-68.1-88.9-93.3 -35.6-25.3-75.1-43.2-117.4-53.2 -42.6-10.1-86.2-11.7-129.7-4.8 -7.9 0.2-15.6 3.9-20.5 10.9 -8.3 11.6-5.5 27.8 6.1 36 5.8 4.1 12.7 5.5 19.2 4.4l0 0.2c75-12.7 150.4 4.5 212.4 48.6 62 44 103.1 109.6 115.9 184.5l0.1 0c1.3 6.2 4.8 11.9 10.3 15.8 11.6 8.3 27.7 5.5 36-6.1C817.6 474.7 818.8 466.6 816.8 459.4zM189.2 581.3L189.2 581.3l-26.9-106.2 112.5-46.5 -37.2-124.5 122.8-30.1c6.8-0.9 13.3-4.6 17.6-10.6 8.3-11.6 5.5-27.7-6.1-36 -5.9-4.2-13-5.6-19.6-4.3l0-0.2 -179.6 44 39.3 131.8 -110.7 45.8L139.3 594l0 0c1.2 6.2 4.8 12 10.4 15.9 11.6 8.3 27.7 5.5 36-6.1C190.4 597 191.5 588.7 189.2 581.3zM827.5 731.9l-17.7-184 -0.3 0c-1-6.7-4.6-13-10.6-17.2 -11.6-8.3-27.7-5.5-36 6.1 -4.4 6.2-5.7 13.8-4.1 20.7l12 125.3 -129.8 6 -6.8 121.5 -109.1 9.6 0 0.1c-8.2-0.1-16.4 3.6-21.5 10.9 -8.3 11.6-5.5 27.7 6.1 36 6 4.3 13.2 5.6 19.9 4.3l0 0.1 153.6-13.5 6.7-119.6L827.5 731.9z"/>
</svg>